<mxfile host="Electron" modified="2023-04-20T01:04:32.225Z" agent="Mozilla/5.0 (Windows NT 10.0; Win64; x64) AppleWebKit/537.36 (KHTML, like Gecko) draw.io/21.1.2 Chrome/106.0.5249.199 Electron/21.4.3 Safari/537.36" etag="sFtNVOK0h_bcLSGqOADn" version="21.1.2" type="device">
  <diagram name="PÃ¡gina-1" id="7hwq3orIxLXxcSEaidvm">
    <mxGraphModel dx="989" dy="577" grid="1" gridSize="10" guides="1" tooltips="1" connect="1" arrows="1" fold="1" page="1" pageScale="1" pageWidth="827" pageHeight="1169" math="1" shadow="0">
      <root>
        <mxCell id="0" />
        <mxCell id="1" parent="0" />
        <mxCell id="nBmy_2LKV6bsArcyTNOu-43" value="" style="rounded=1;whiteSpace=wrap;html=1;fillColor=#dae8fc;strokeColor=#6c8ebf;" vertex="1" parent="1">
          <mxGeometry x="180" y="60" width="540" height="390" as="geometry" />
        </mxCell>
        <mxCell id="nBmy_2LKV6bsArcyTNOu-18" style="edgeStyle=orthogonalEdgeStyle;rounded=0;orthogonalLoop=1;jettySize=auto;html=1;exitX=1;exitY=0.5;exitDx=0;exitDy=0;entryX=0;entryY=0.5;entryDx=0;entryDy=0;" edge="1" parent="1" source="nBmy_2LKV6bsArcyTNOu-5" target="nBmy_2LKV6bsArcyTNOu-11">
          <mxGeometry relative="1" as="geometry" />
        </mxCell>
        <mxCell id="nBmy_2LKV6bsArcyTNOu-5" value="$$\frac{K_{i}}{s}$$" style="whiteSpace=wrap;html=1;aspect=fixed;" vertex="1" parent="1">
          <mxGeometry x="440" y="240" width="60" height="60" as="geometry" />
        </mxCell>
        <mxCell id="nBmy_2LKV6bsArcyTNOu-20" style="edgeStyle=orthogonalEdgeStyle;rounded=0;orthogonalLoop=1;jettySize=auto;html=1;exitX=1;exitY=0.5;exitDx=0;exitDy=0;entryX=0.5;entryY=1;entryDx=0;entryDy=0;" edge="1" parent="1" source="nBmy_2LKV6bsArcyTNOu-7" target="nBmy_2LKV6bsArcyTNOu-11">
          <mxGeometry relative="1" as="geometry" />
        </mxCell>
        <mxCell id="nBmy_2LKV6bsArcyTNOu-7" value="$$K_{d}s$$" style="whiteSpace=wrap;html=1;aspect=fixed;" vertex="1" parent="1">
          <mxGeometry x="440" y="365" width="60" height="60" as="geometry" />
        </mxCell>
        <mxCell id="nBmy_2LKV6bsArcyTNOu-8" value="$$G(s)$$" style="whiteSpace=wrap;html=1;aspect=fixed;" vertex="1" parent="1">
          <mxGeometry x="750" y="240" width="60" height="60" as="geometry" />
        </mxCell>
        <mxCell id="nBmy_2LKV6bsArcyTNOu-34" style="edgeStyle=orthogonalEdgeStyle;rounded=0;orthogonalLoop=1;jettySize=auto;html=1;entryX=0.5;entryY=1;entryDx=0;entryDy=0;" edge="1" parent="1" source="nBmy_2LKV6bsArcyTNOu-9" target="nBmy_2LKV6bsArcyTNOu-29">
          <mxGeometry relative="1" as="geometry" />
        </mxCell>
        <mxCell id="nBmy_2LKV6bsArcyTNOu-9" value="$$H(s)$$" style="whiteSpace=wrap;html=1;aspect=fixed;" vertex="1" parent="1">
          <mxGeometry x="460" y="510" width="60" height="60" as="geometry" />
        </mxCell>
        <mxCell id="nBmy_2LKV6bsArcyTNOu-27" style="edgeStyle=orthogonalEdgeStyle;rounded=0;orthogonalLoop=1;jettySize=auto;html=1;exitX=1;exitY=0.5;exitDx=0;exitDy=0;" edge="1" parent="1" source="nBmy_2LKV6bsArcyTNOu-11" target="nBmy_2LKV6bsArcyTNOu-8">
          <mxGeometry relative="1" as="geometry" />
        </mxCell>
        <mxCell id="nBmy_2LKV6bsArcyTNOu-11" value="" style="ellipse;whiteSpace=wrap;html=1;aspect=fixed;" vertex="1" parent="1">
          <mxGeometry x="640" y="255" width="30" height="30" as="geometry" />
        </mxCell>
        <mxCell id="nBmy_2LKV6bsArcyTNOu-12" value="" style="endArrow=classic;html=1;rounded=0;" edge="1" parent="1" target="nBmy_2LKV6bsArcyTNOu-7">
          <mxGeometry width="50" height="50" relative="1" as="geometry">
            <mxPoint x="280" y="270" as="sourcePoint" />
            <mxPoint x="330" y="399.9999999999999" as="targetPoint" />
            <Array as="points">
              <mxPoint x="280" y="400" />
            </Array>
          </mxGeometry>
        </mxCell>
        <mxCell id="nBmy_2LKV6bsArcyTNOu-21" value="$$p(s)$$" style="text;html=1;align=center;verticalAlign=middle;resizable=0;points=[];autosize=1;strokeColor=none;fillColor=none;" vertex="1" parent="1">
          <mxGeometry x="585" y="100" width="70" height="30" as="geometry" />
        </mxCell>
        <mxCell id="nBmy_2LKV6bsArcyTNOu-22" value="&lt;font style=&quot;font-size: 19px;&quot;&gt;+&lt;/font&gt;" style="text;html=1;align=center;verticalAlign=middle;resizable=0;points=[];autosize=1;strokeColor=none;fillColor=none;" vertex="1" parent="1">
          <mxGeometry x="625" y="225" width="30" height="40" as="geometry" />
        </mxCell>
        <mxCell id="nBmy_2LKV6bsArcyTNOu-23" value="&lt;font style=&quot;font-size: 19px;&quot;&gt;+&lt;/font&gt;" style="text;html=1;align=center;verticalAlign=middle;resizable=0;points=[];autosize=1;strokeColor=none;fillColor=none;" vertex="1" parent="1">
          <mxGeometry x="655" y="275" width="30" height="40" as="geometry" />
        </mxCell>
        <mxCell id="nBmy_2LKV6bsArcyTNOu-24" value="&lt;font style=&quot;font-size: 19px;&quot;&gt;+&lt;/font&gt;" style="text;html=1;align=center;verticalAlign=middle;resizable=0;points=[];autosize=1;strokeColor=none;fillColor=none;" vertex="1" parent="1">
          <mxGeometry x="605" y="260" width="30" height="40" as="geometry" />
        </mxCell>
        <mxCell id="nBmy_2LKV6bsArcyTNOu-25" value="$$i(s)$$" style="text;html=1;align=center;verticalAlign=middle;resizable=0;points=[];autosize=1;strokeColor=none;fillColor=none;" vertex="1" parent="1">
          <mxGeometry x="535" y="240" width="70" height="30" as="geometry" />
        </mxCell>
        <mxCell id="nBmy_2LKV6bsArcyTNOu-26" value="$$d(s)$$" style="text;html=1;align=center;verticalAlign=middle;resizable=0;points=[];autosize=1;strokeColor=none;fillColor=none;" vertex="1" parent="1">
          <mxGeometry x="585" y="365" width="70" height="30" as="geometry" />
        </mxCell>
        <mxCell id="nBmy_2LKV6bsArcyTNOu-28" value="$$u(s)$$" style="text;html=1;align=center;verticalAlign=middle;resizable=0;points=[];autosize=1;strokeColor=none;fillColor=none;" vertex="1" parent="1">
          <mxGeometry x="660" y="240" width="70" height="30" as="geometry" />
        </mxCell>
        <mxCell id="nBmy_2LKV6bsArcyTNOu-30" style="edgeStyle=orthogonalEdgeStyle;rounded=0;orthogonalLoop=1;jettySize=auto;html=1;entryX=0;entryY=0.5;entryDx=0;entryDy=0;" edge="1" parent="1" source="nBmy_2LKV6bsArcyTNOu-29" target="nBmy_2LKV6bsArcyTNOu-5">
          <mxGeometry relative="1" as="geometry">
            <mxPoint x="330" y="269.9999999999999" as="targetPoint" />
          </mxGeometry>
        </mxCell>
        <mxCell id="nBmy_2LKV6bsArcyTNOu-29" value="" style="ellipse;whiteSpace=wrap;html=1;aspect=fixed;" vertex="1" parent="1">
          <mxGeometry x="110" y="255" width="30" height="30" as="geometry" />
        </mxCell>
        <mxCell id="nBmy_2LKV6bsArcyTNOu-31" value="$$e(s)$$" style="text;html=1;align=center;verticalAlign=middle;resizable=0;points=[];autosize=1;strokeColor=none;fillColor=none;" vertex="1" parent="1">
          <mxGeometry x="120" y="235" width="70" height="30" as="geometry" />
        </mxCell>
        <mxCell id="nBmy_2LKV6bsArcyTNOu-32" value="&lt;font style=&quot;font-size: 19px;&quot;&gt;+&lt;/font&gt;" style="text;html=1;align=center;verticalAlign=middle;resizable=0;points=[];autosize=1;strokeColor=none;fillColor=none;" vertex="1" parent="1">
          <mxGeometry x="90" y="235" width="30" height="40" as="geometry" />
        </mxCell>
        <mxCell id="nBmy_2LKV6bsArcyTNOu-33" value="&lt;font style=&quot;font-size: 19px;&quot;&gt;-&lt;/font&gt;" style="text;html=1;align=center;verticalAlign=middle;resizable=0;points=[];autosize=1;strokeColor=none;fillColor=none;" vertex="1" parent="1">
          <mxGeometry x="120" y="280" width="30" height="40" as="geometry" />
        </mxCell>
        <mxCell id="nBmy_2LKV6bsArcyTNOu-35" value="" style="endArrow=classic;html=1;rounded=0;exitX=1;exitY=0.5;exitDx=0;exitDy=0;" edge="1" parent="1" source="nBmy_2LKV6bsArcyTNOu-8">
          <mxGeometry width="50" height="50" relative="1" as="geometry">
            <mxPoint x="520" y="470" as="sourcePoint" />
            <mxPoint x="900" y="270" as="targetPoint" />
          </mxGeometry>
        </mxCell>
        <mxCell id="nBmy_2LKV6bsArcyTNOu-37" value="" style="endArrow=none;html=1;rounded=0;exitX=1;exitY=0.5;exitDx=0;exitDy=0;" edge="1" parent="1" source="nBmy_2LKV6bsArcyTNOu-9">
          <mxGeometry width="50" height="50" relative="1" as="geometry">
            <mxPoint x="580" y="470" as="sourcePoint" />
            <mxPoint x="850" y="270" as="targetPoint" />
            <Array as="points">
              <mxPoint x="850" y="540" />
            </Array>
          </mxGeometry>
        </mxCell>
        <mxCell id="nBmy_2LKV6bsArcyTNOu-38" value="$$y(s)$$" style="text;html=1;align=center;verticalAlign=middle;resizable=0;points=[];autosize=1;strokeColor=none;fillColor=none;" vertex="1" parent="1">
          <mxGeometry x="840" y="225" width="70" height="30" as="geometry" />
        </mxCell>
        <mxCell id="nBmy_2LKV6bsArcyTNOu-40" value="" style="endArrow=classic;html=1;rounded=0;entryX=0;entryY=0.5;entryDx=0;entryDy=0;" edge="1" parent="1" target="nBmy_2LKV6bsArcyTNOu-29">
          <mxGeometry width="50" height="50" relative="1" as="geometry">
            <mxPoint x="40" y="270" as="sourcePoint" />
            <mxPoint x="650" y="290" as="targetPoint" />
          </mxGeometry>
        </mxCell>
        <mxCell id="nBmy_2LKV6bsArcyTNOu-41" value="$$r(s)$$" style="text;html=1;align=center;verticalAlign=middle;resizable=0;points=[];autosize=1;strokeColor=none;fillColor=none;" vertex="1" parent="1">
          <mxGeometry x="30" y="235" width="70" height="30" as="geometry" />
        </mxCell>
        <mxCell id="nBmy_2LKV6bsArcyTNOu-44" value="&lt;font style=&quot;font-size: 19px;&quot;&gt;&lt;b&gt;Controlador PID&lt;/b&gt;&lt;/font&gt;" style="text;html=1;align=center;verticalAlign=middle;resizable=0;points=[];autosize=1;strokeColor=none;fillColor=none;" vertex="1" parent="1">
          <mxGeometry x="210" y="70" width="170" height="40" as="geometry" />
        </mxCell>
        <mxCell id="nBmy_2LKV6bsArcyTNOu-49" style="edgeStyle=orthogonalEdgeStyle;rounded=0;orthogonalLoop=1;jettySize=auto;html=1;exitX=1;exitY=0.5;exitDx=0;exitDy=0;" edge="1" parent="1" source="nBmy_2LKV6bsArcyTNOu-45" target="nBmy_2LKV6bsArcyTNOu-11">
          <mxGeometry relative="1" as="geometry" />
        </mxCell>
        <mxCell id="nBmy_2LKV6bsArcyTNOu-45" value="$$K_{p}$$" style="whiteSpace=wrap;html=1;aspect=fixed;" vertex="1" parent="1">
          <mxGeometry x="440" y="100" width="60" height="60" as="geometry" />
        </mxCell>
        <mxCell id="nBmy_2LKV6bsArcyTNOu-46" value="" style="endArrow=classic;html=1;rounded=0;entryX=0;entryY=0.5;entryDx=0;entryDy=0;" edge="1" parent="1" target="nBmy_2LKV6bsArcyTNOu-45">
          <mxGeometry width="50" height="50" relative="1" as="geometry">
            <mxPoint x="280" y="270" as="sourcePoint" />
            <mxPoint x="540" y="270" as="targetPoint" />
            <Array as="points">
              <mxPoint x="280" y="130" />
            </Array>
          </mxGeometry>
        </mxCell>
      </root>
    </mxGraphModel>
  </diagram>
</mxfile>
